<?xml version="1.0" encoding="UTF-8"?>
<svg id="Capa_2" data-name="Capa 2" xmlns="http://www.w3.org/2000/svg" viewBox="0 0 1920 833.05">
  <defs>
    <style>
      .cls-1 {
        stroke: #ffcb05;
      }

      .cls-1, .cls-2, .cls-3, .cls-4 {
        fill: none;
        stroke-linecap: round;
        stroke-miterlimit: 10;
        stroke-width: 5px;
      }

      .cls-2 {
        stroke: #fa0;
      }

      .cls-5 {
        fill: #ffcb05;
      }

      .cls-3 {
        stroke: #3c3a3c;
      }

      .cls-6 {
        fill: #3c3a3c;
      }

      .cls-7 {
        fill: #fa0;
      }

      .cls-8 {
        fill: #b9bece;
      }

      .cls-4 {
        stroke: #b9bece;
      }

      @keyframes tr-a {
        0%,100% { opacity: 1;   }
        38%     { opacity: .45; }
        43%     { opacity: .92; }
        74%     { opacity: .58; }
        79%     { opacity: 1;   }
      }
      @keyframes tr-b {
        0%,100% { opacity: .9;  }
        25%     { opacity: .4;  }
        30%     { opacity: .85; }
        65%     { opacity: .52; }
        70%     { opacity: .88; }
      }
      @keyframes tr-dot {
        0%,100% { opacity: 1;   }
        50%     { opacity: .48; }
      }

      .cls-1 { animation: tr-a    5.7s ease-in-out infinite; }
      .cls-2 { animation: tr-b    7.3s ease-in-out infinite 2.1s; }
      .cls-3 { animation: tr-a    9.1s ease-in-out infinite 3.8s; }
      .cls-4 { animation: tr-b    6.5s ease-in-out infinite 1.2s; }
      .cls-5 { animation: tr-dot  5.1s ease-in-out infinite 0.7s; }
      .cls-6 { animation: tr-dot  8.3s ease-in-out infinite 4.1s; }
      .cls-7 { animation: tr-a    7.9s ease-in-out infinite 2.9s; }
      .cls-8 { animation: tr-b    6.1s ease-in-out infinite 1.5s; }

      @media (prefers-reduced-motion: reduce) {
        .cls-1, .cls-2, .cls-3, .cls-4,
        .cls-5, .cls-6, .cls-7, .cls-8 { animation: none; }
      }
    </style>
  </defs>
  <g>
    <circle class="cls-5" cx="1726.06" cy="151.25" r="4.91"/>
    <circle class="cls-5" cx="1711" cy="151.25" r="4.91"/>
    <g>
      <circle class="cls-5" cx="1719.88" cy="195.95" r="4.91"/>
      <circle class="cls-5" cx="1704.82" cy="195.95" r="4.91"/>
    </g>
    <line class="cls-1" x1="1860.93" y1="151.28" x2="1745.03" y2="151.22"/>
    <line class="cls-2" x1="1918.5" y1="309.48" x2="1763.97" y2="309.4"/>
    <line class="cls-2" x1="1900.07" y1="196.38" x2="1861.44" y2="196.36"/>
    <line class="cls-4" x1="1916.77" y1="376.89" x2="1858.82" y2="376.86"/>
    <line class="cls-2" x1="1753.07" y1="377.18" x2="1695.12" y2="377.15"/>
    <line class="cls-4" x1="1670.63" y1="399.53" x2="1746.25" y2="399.5"/>
    <line class="cls-4" x1="1919.22" y1="421.92" x2="1861.27" y2="421.89"/>
    <line class="cls-4" x1="1783.01" y1="354.33" x2="1725.06" y2="354.3"/>
    <line class="cls-4" x1="1860.43" y1="241.51" x2="1918.38" y2="241.48"/>
    <line class="cls-1" x1="1675.52" y1="264.25" x2="1733.47" y2="264.22"/>
    <line class="cls-1" x1="1771.96" y1="331.76" x2="1714.01" y2="331.73"/>
    <line class="cls-3" x1="1655.32" y1="421.8" x2="1597.37" y2="421.77"/>
    <line class="cls-3" x1="1918.74" y1="444.06" x2="1802.84" y2="444"/>
    <line class="cls-3" x1="1882.86" y1="286.69" x2="1766.97" y2="286.63"/>
    <line class="cls-1" x1="1895.4" y1="263.76" x2="1779.51" y2="263.7"/>
    <line class="cls-2" x1="1840.34" y1="218.84" x2="1724.44" y2="218.84"/>
    <line class="cls-1" x1="1893.83" y1="399.51" x2="1777.93" y2="399.45"/>
    <line class="cls-2" x1="1682.79" y1="331.96" x2="1605.52" y2="331.92"/>
    <line class="cls-3" x1="1705.32" y1="128.74" x2="1628.06" y2="128.7"/>
    <line class="cls-2" x1="1881.13" y1="106.51" x2="1842.5" y2="106.49"/>
    <line class="cls-2" x1="1813.53" y1="128.73" x2="1774.9" y2="128.71"/>
    <line class="cls-1" x1="1579.66" y1="196.32" x2="1541.03" y2="196.3"/>
    <line class="cls-1" x1="1844.23" y1="286.67" x2="1805.6" y2="286.65"/>
    <line class="cls-1" x1="1776.68" y1="218.84" x2="1738.05" y2="218.82"/>
    <line class="cls-2" x1="1860.55" y1="151.06" x2="1821.92" y2="151.04"/>
    <line class="cls-2" x1="1821.38" y1="421.91" x2="1782.75" y2="421.89"/>
    <line class="cls-1" x1="1709.84" y1="105.89" x2="1593.95" y2="105.83"/>
    <line class="cls-2" x1="1709.84" y1="105.87" x2="1671.21" y2="105.85"/>
    <line class="cls-3" x1="1816.6" y1="196.39" x2="1739.33" y2="196.35"/>
    <circle class="cls-5" cx="1605.52" cy="376.7" r="4.91"/>
    <circle class="cls-8" cx="1528.63" cy="399.39" r="4.91"/>
    <line class="cls-1" x1="1916.55" y1="354.34" x2="1800.66" y2="354.28"/>
    <line class="cls-3" x1="1521.01" y1="354.35" x2="1482.38" y2="354.33"/>
    <line class="cls-2" x1="1839.29" y1="354.32" x2="1800.66" y2="354.3"/>
    <line class="cls-1" x1="1690.24" y1="241.53" x2="1806.13" y2="241.47"/>
    <line class="cls-2" x1="1555.96" y1="241.47" x2="1651.5" y2="241.53"/>
    <line class="cls-2" x1="1918.38" y1="241.51" x2="1879.75" y2="241.49"/>
    <line class="cls-3" x1="1685.54" y1="354.33" x2="1608.28" y2="354.29"/>
    <line class="cls-3" x1="1900.99" y1="331.77" x2="1823.72" y2="331.73"/>
    <line class="cls-2" x1="1918.74" y1="444.04" x2="1880.11" y2="444.02"/>
    <line class="cls-2" x1="1650.53" y1="286.61" x2="1611.9" y2="286.59"/>
    <line class="cls-3" x1="1553.43" y1="264.26" x2="1514.8" y2="264.24"/>
    <line class="cls-3" x1="1743.47" y1="309.52" x2="1704.84" y2="309.49"/>
    <line class="cls-3" x1="1918.78" y1="218.85" x2="1880.14" y2="218.83"/>
    <line class="cls-3" x1="1644.97" y1="399.45" x2="1683.61" y2="399.43"/>
    <line class="cls-3" x1="1581.58" y1="444.72" x2="1542.95" y2="444.7"/>
    <line class="cls-3" x1="1597.77" y1="61.08" x2="1559.14" y2="61.06"/>
    <line class="cls-1" x1="1639.59" y1="218.87" x2="1620.28" y2="218.87"/>
    <line class="cls-2" x1="1522.88" y1="195.83" x2="1503.56" y2="195.83"/>
    <line class="cls-2" x1="1577.93" y1="354.48" x2="1558.61" y2="354.48"/>
    <line class="cls-4" x1="1506.72" y1="444.6" x2="1487.4" y2="444.6"/>
    <line class="cls-4" x1="1591.92" y1="715.27" x2="1572.6" y2="715.27"/>
    <line class="cls-1" x1="1702.94" y1="828.18" x2="1683.63" y2="828.18"/>
    <line class="cls-3" x1="1620.09" y1="534.74" x2="1600.77" y2="534.74"/>
    <line class="cls-3" x1="1613.44" y1="670.49" x2="1632.76" y2="670.49"/>
    <line class="cls-1" x1="1758.44" y1="128.73" x2="1719.81" y2="128.71"/>
    <line class="cls-3" x1="1918.78" y1="106.13" x2="1899.46" y2="106.12"/>
    <line class="cls-4" x1="1809.82" y1="15.8" x2="1771.19" y2="15.78"/>
    <line class="cls-1" x1="1785.16" y1="444.04" x2="1746.52" y2="444.02"/>
    <line class="cls-1" x1="1918.5" y1="309.48" x2="1879.87" y2="309.46"/>
    <line class="cls-4" x1="1677.38" y1="376.89" x2="1638.75" y2="376.86"/>
    <line class="cls-3" x1="1918.78" y1="151.26" x2="1880.14" y2="151.24"/>
    <circle class="cls-8" cx="1913.87" cy="196.37" r="4.91"/>
    <circle class="cls-7" cx="1762.27" cy="263.95" r="4.91"/>
    <circle class="cls-6" cx="1595.5" cy="218.87" r="4.91"/>
    <circle class="cls-7" cx="1586.06" cy="263.39" r="4.91"/>
    <circle class="cls-8" cx="1748.8" cy="286.62" r="4.91"/>
    <circle class="cls-5" cx="1676.33" cy="84.84" r="4.91"/>
    <circle class="cls-5" cx="1676.57" cy="286.58" r="4.91"/>
    <circle class="cls-5" cx="1915.09" cy="331.73" r="4.91"/>
    <circle class="cls-5" cx="1704.86" cy="354.31" r="4.91"/>
    <line class="cls-1" x1="1678.15" y1="151.12" x2="1639.52" y2="151.1"/>
    <circle class="cls-8" cx="1600.41" cy="128.31" r="4.91"/>
    <circle class="cls-5" cx="1538.45" cy="60.95" r="4.91"/>
    <circle class="cls-7" cx="1915.09" cy="399.48" r="4.91"/>
    <circle class="cls-5" cx="1843.37" cy="421.9" r="4.91"/>
    <circle class="cls-8" cx="1831.94" cy="196.37" r="4.91"/>
    <g>
      <circle class="cls-5" cx="1913.87" cy="286.71" r="4.91"/>
      <circle class="cls-5" cx="1898.81" cy="286.7" r="4.91"/>
    </g>
    <g>
      <circle class="cls-8" cx="1805.22" cy="331.75" r="4.91"/>
      <circle class="cls-8" cx="1790.16" cy="331.75" r="4.91"/>
    </g>
    <g>
      <circle class="cls-5" cx="1842.28" cy="376.92" r="4.91"/>
      <circle class="cls-5" cx="1827.22" cy="376.91" r="4.91"/>
    </g>
    <g>
      <circle class="cls-7" cx="1823.16" cy="240.33" r="4.91"/>
      <circle class="cls-7" cx="1838.22" cy="240.33" r="4.91"/>
    </g>
    <line class="cls-1" x1="1816.06" y1="106.4" x2="1758.11" y2="106.37"/>
    <g>
      <circle class="cls-8" cx="1740.76" cy="106.39" r="4.91"/>
      <circle class="cls-8" cx="1725.7" cy="106.38" r="4.91"/>
    </g>
    <g>
      <circle class="cls-5" cx="1725.01" cy="444.14" r="4.91"/>
      <circle class="cls-5" cx="1709.95" cy="444.13" r="4.91"/>
    </g>
    <g>
      <line class="cls-4" x1="1704.72" y1="309.68" x2="1683.88" y2="330.5"/>
      <circle class="cls-5" cx="1682.51" cy="332.14" r="4.91"/>
      <circle class="cls-5" cx="1704.84" cy="309.24" r="4.91"/>
    </g>
    <g>
      <line class="cls-4" x1="1861.38" y1="196.63" x2="1840.54" y2="217.45"/>
      <circle class="cls-5" cx="1839.18" cy="219.09" r="4.91"/>
      <circle class="cls-5" cx="1861.5" cy="196.2" r="4.91"/>
    </g>
    <g>
      <line class="cls-4" x1="1839.98" y1="106.39" x2="1819.14" y2="127.21"/>
      <circle class="cls-5" cx="1817.78" cy="128.85" r="4.91"/>
      <circle class="cls-5" cx="1840.1" cy="105.95" r="4.91"/>
    </g>
    <g>
      <line class="cls-1" x1="1672.6" y1="263.39" x2="1651.78" y2="242.55"/>
      <circle class="cls-8" cx="1650.42" cy="240.91" r="4.91"/>
      <circle class="cls-8" cx="1672.72" cy="263.83" r="4.91"/>
    </g>
    <g>
      <line class="cls-2" x1="1755.93" y1="377.14" x2="1776.77" y2="397.96"/>
      <circle class="cls-8" cx="1778.13" cy="399.6" r="4.91"/>
      <circle class="cls-8" cx="1755.81" cy="376.7" r="4.91"/>
    </g>
    <line class="cls-4" x1="1918.04" y1="173.82" x2="1860.1" y2="173.79"/>
    <line class="cls-4" x1="1819.77" y1="173.06" x2="1703.88" y2="173"/>
    <line class="cls-2" x1="1819.77" y1="173.04" x2="1781.14" y2="173.02"/>
    <circle class="cls-5" cx="1842.19" cy="173.81" r="4.91"/>
    <circle class="cls-5" cx="1913.87" cy="128.68" r="4.91"/>
    <g>
      <line class="cls-3" x1="1680.88" y1="151.49" x2="1701.7" y2="172.33"/>
      <circle class="cls-7" cx="1703.07" cy="173.97" r="4.91"/>
      <circle class="cls-7" cx="1680.76" cy="151.05" r="4.91"/>
    </g>
    <line class="cls-2" x1="1796.54" y1="512.29" x2="1642.01" y2="512.21"/>
    <line class="cls-1" x1="1915.02" y1="760.48" x2="1772.81" y2="760.4"/>
    <line class="cls-2" x1="1916.44" y1="579.98" x2="1761.91" y2="579.9"/>
    <line class="cls-4" x1="1917.47" y1="625.08" x2="1859.52" y2="625.05"/>
    <line class="cls-2" x1="1779.68" y1="489.64" x2="1895.57" y2="489.71"/>
    <line class="cls-4" x1="1817.12" y1="512.27" x2="1875.07" y2="512.24"/>
    <line class="cls-4" x1="1918.78" y1="467.14" x2="1860.83" y2="467.11"/>
    <line class="cls-2" x1="1551.82" y1="512.23" x2="1493.88" y2="512.2"/>
    <line class="cls-4" x1="1743.83" y1="647.63" x2="1685.88" y2="647.6"/>
    <line class="cls-2" x1="1671.56" y1="625.08" x2="1613.61" y2="625.05"/>
    <line class="cls-3" x1="1681.49" y1="489.59" x2="1623.55" y2="489.56"/>
    <line class="cls-1" x1="1658.06" y1="444.57" x2="1619.43" y2="444.55"/>
    <line class="cls-3" x1="1882.7" y1="602.19" x2="1766.8" y2="602.13"/>
    <line class="cls-1" x1="1824.36" y1="625.1" x2="1708.47" y2="625.04"/>
    <line class="cls-1" x1="1820.93" y1="467.16" x2="1705.04" y2="467.1"/>
    <line class="cls-2" x1="1682.7" y1="557.31" x2="1605.44" y2="557.27"/>
    <line class="cls-2" x1="1850.07" y1="760.46" x2="1772.81" y2="760.42"/>
    <line class="cls-1" x1="1844.06" y1="602.17" x2="1805.43" y2="602.15"/>
    <line class="cls-2" x1="1820.93" y1="467.14" x2="1782.3" y2="467.12"/>
    <circle class="cls-5" cx="1865.72" cy="534.81" r="4.91"/>
    <circle class="cls-5" cx="1850.66" cy="534.81" r="4.91"/>
    <line class="cls-1" x1="1837.96" y1="534.85" x2="1722.07" y2="534.78"/>
    <line class="cls-2" x1="1918.62" y1="534.82" x2="1879.99" y2="534.8"/>
    <line class="cls-2" x1="1760.7" y1="534.82" x2="1722.07" y2="534.8"/>
    <line class="cls-1" x1="1917.16" y1="648.01" x2="1801.27" y2="647.95"/>
    <line class="cls-2" x1="1917.16" y1="647.95" x2="1878.53" y2="647.92"/>
    <line class="cls-3" x1="1900.9" y1="557.42" x2="1823.64" y2="557.38"/>
    <line class="cls-1" x1="1640.28" y1="580.21" x2="1582.33" y2="580.18"/>
    <line class="cls-1" x1="1576.7" y1="670.5" x2="1518.75" y2="670.47"/>
    <line class="cls-1" x1="1652.07" y1="647.65" x2="1594.13" y2="647.62"/>
    <line class="cls-1" x1="1918.77" y1="828.15" x2="1860.82" y2="828.12"/>
    <line class="cls-2" x1="1730.47" y1="602.17" x2="1691.84" y2="602.15"/>
    <line class="cls-3" x1="1582.18" y1="602.48" x2="1561.23" y2="602.5"/>
    <line class="cls-3" x1="1743.41" y1="579.95" x2="1704.78" y2="579.93"/>
    <line class="cls-2" x1="1548.16" y1="625.04" x2="1520" y2="625.03"/>
    <line class="cls-3" x1="1791.86" y1="828.16" x2="1763.7" y2="828.15"/>
    <line class="cls-4" x1="1546.92" y1="557.48" x2="1518.77" y2="557.47"/>
    <line class="cls-1" x1="1567.51" y1="534.85" x2="1539.35" y2="534.84"/>
    <line class="cls-4" x1="1581.58" y1="489.82" x2="1542.95" y2="489.8"/>
    <line class="cls-1" x1="1916.44" y1="579.95" x2="1877.81" y2="579.93"/>
    <line class="cls-4" x1="1680.64" y1="512.26" x2="1642.01" y2="512.24"/>
    <circle class="cls-7" cx="1841.6" cy="625.07" r="4.91"/>
    <circle class="cls-7" cx="1691.23" cy="625.07" r="4.91"/>
    <circle class="cls-8" cx="1748.64" cy="602.16" r="4.91"/>
    <circle class="cls-6" cx="1624.27" cy="692.21" r="4.91"/>
    <circle class="cls-6" cx="1566.92" cy="557.48" r="4.91"/>
    <circle class="cls-5" cx="1539.35" cy="647.58" r="4.91"/>
    <line class="cls-1" x1="1566.92" y1="399.62" x2="1595.08" y2="399.61"/>
    <line class="cls-4" x1="1570.93" y1="309.19" x2="1599.08" y2="309.18"/>
    <circle class="cls-6" cx="1529.94" cy="309.19" r="4.91"/>
    <circle class="cls-5" cx="1491.21" cy="240.33" r="4.91"/>
    <circle class="cls-7" cx="1511.21" cy="151.49" r="4.91"/>
    <circle class="cls-5" cx="1913.87" cy="557.43" r="4.91"/>
    <circle class="cls-5" cx="1702.96" cy="534.81" r="4.91"/>
    <circle class="cls-7" cx="1587.75" cy="467.37" r="4.91"/>
    <circle class="cls-6" cx="1915.09" cy="489.64" r="4.91"/>
    <circle class="cls-5" cx="1842.92" cy="467.13" r="4.91"/>
    <g>
      <circle class="cls-7" cx="1913.87" cy="602.52" r="4.91"/>
      <circle class="cls-7" cx="1898.81" cy="602.51" r="4.91"/>
    </g>
    <g>
      <circle class="cls-8" cx="1805.14" cy="557.37" r="4.91"/>
      <circle class="cls-8" cx="1790.08" cy="557.37" r="4.91"/>
    </g>
    <g>
      <circle class="cls-5" cx="1896.51" cy="512.26" r="4.91"/>
      <circle class="cls-5" cx="1911.57" cy="512.25" r="4.91"/>
    </g>
    <line class="cls-1" x1="1854.87" y1="670.49" x2="1912.82" y2="670.46"/>
    <g>
      <circle class="cls-7" cx="1781.57" cy="647.98" r="4.91"/>
      <circle class="cls-7" cx="1766.51" cy="647.98" r="4.91"/>
    </g>
    <g>
      <circle class="cls-7" cx="1814.41" cy="737.87" r="4.91"/>
      <circle class="cls-7" cx="1799.35" cy="737.86" r="4.91"/>
    </g>
    <line class="cls-1" x1="1623.6" y1="39.16" x2="1681.55" y2="39.19"/>
    <line class="cls-4" x1="1918.52" y1="805.57" x2="1860.57" y2="805.54"/>
    <g>
      <circle class="cls-5" cx="1674.61" cy="581.44" r="4.91"/>
      <circle class="cls-5" cx="1659.55" cy="581.43" r="4.91"/>
    </g>
    <g>
      <circle class="cls-5" cx="1845.52" cy="828.14" r="4.91"/>
      <circle class="cls-5" cx="1830.46" cy="828.13" r="4.91"/>
    </g>
    <g>
      <line class="cls-4" x1="1704.58" y1="580.06" x2="1683.76" y2="559.22"/>
      <circle class="cls-5" cx="1682.4" cy="557.58" r="4.91"/>
      <circle class="cls-5" cx="1704.7" cy="580.5" r="4.91"/>
    </g>
    <g>
      <line class="cls-1" x1="1588.04" y1="602.6" x2="1608.88" y2="623.42"/>
      <circle class="cls-8" cx="1610.25" cy="625.05" r="4.91"/>
      <circle class="cls-8" cx="1587.92" cy="602.16" r="4.91"/>
    </g>
    <g>
      <line class="cls-2" x1="1680.11" y1="489.18" x2="1700.96" y2="468.36"/>
      <circle class="cls-8" cx="1702.32" cy="466.72" r="4.91"/>
      <circle class="cls-8" cx="1680" cy="489.62" r="4.91"/>
    </g>
    <line class="cls-1" x1="1741.57" y1="422.15" x2="1683.63" y2="422.12"/>
    <line class="cls-1" x1="1661.9" y1="83.53" x2="1623.27" y2="83.51"/>
    <line class="cls-3" x1="1586.06" y1="151.05" x2="1547.43" y2="151.03"/>
    <line class="cls-2" x1="1780.99" y1="715.44" x2="1896.89" y2="715.5"/>
    <line class="cls-4" x1="1917.56" y1="738.18" x2="1833.1" y2="738.15"/>
    <line class="cls-4" x1="1918.52" y1="692.81" x2="1860.57" y2="692.78"/>
    <line class="cls-1" x1="1759.99" y1="715.48" x2="1721.36" y2="715.46"/>
    <line class="cls-2" x1="1830.75" y1="805.58" x2="1792.12" y2="805.56"/>
    <line class="cls-1" x1="1820.68" y1="692.82" x2="1704.78" y2="692.76"/>
    <line class="cls-2" x1="1820.68" y1="692.8" x2="1782.04" y2="692.78"/>
    <line class="cls-2" x1="1658.32" y1="738.15" x2="1774.21" y2="738.21"/>
    <line class="cls-1" x1="1774.29" y1="738.21" x2="1735.66" y2="738.19"/>
    <circle class="cls-6" cx="1910.73" cy="715.47" r="4.91"/>
    <circle class="cls-5" cx="1842.67" cy="692.79" r="4.91"/>
    <line class="cls-1" x1="1799.47" y1="670.47" x2="1683.58" y2="670.41"/>
    <line class="cls-2" x1="1799.47" y1="670.47" x2="1760.84" y2="670.45"/>
    <line class="cls-1" x1="1677.91" y1="715.51" x2="1639.28" y2="715.49"/>
    <circle class="cls-7" cx="1619.05" cy="737.86" r="4.91"/>
    <circle class="cls-8" cx="1673" cy="782.91" r="4.91"/>
    <circle class="cls-7" cx="1731.92" cy="828.12" r="4.91"/>
    <circle class="cls-5" cx="1821.46" cy="669.53" r="4.91"/>
    <line class="cls-1" x1="1643.62" y1="782.92" x2="1585.68" y2="782.89"/>
    <line class="cls-1" x1="1743.83" y1="781.92" x2="1685.88" y2="781.89"/>
    <g>
      <circle class="cls-5" cx="1623.1" cy="512.26" r="4.91"/>
      <circle class="cls-5" cx="1608.04" cy="512.25" r="4.91"/>
    </g>
    <line class="cls-2" x1="1898.45" y1="399.49" x2="1859.82" y2="399.47"/>
    <line class="cls-3" x1="1745.08" y1="761.05" x2="1687.13" y2="761.08"/>
    <line class="cls-1" x1="1887.62" y1="782.88" x2="1771.72" y2="782.94"/>
    <circle class="cls-6" cx="1910.73" cy="783.02" r="4.91"/>
    <g>
      <line class="cls-2" x1="1748.37" y1="759.45" x2="1769.22" y2="780.27"/>
      <circle class="cls-8" cx="1770.58" cy="781.91" r="4.91"/>
      <circle class="cls-8" cx="1748.25" cy="759.01" r="4.91"/>
    </g>
    <line class="cls-2" x1="1892.24" y1="782.87" x2="1853.61" y2="782.9"/>
    <line class="cls-2" x1="1853.7" y1="83.52" x2="1776.44" y2="83.56"/>
    <line class="cls-1" x1="1918.78" y1="15.8" x2="1860.83" y2="15.83"/>
    <line class="cls-4" x1="1745.08" y1="38.36" x2="1716.92" y2="38.37"/>
    <line class="cls-4" x1="1569.11" y1="105.88" x2="1540.96" y2="105.89"/>
    <line class="cls-4" x1="1918.52" y1="38.38" x2="1860.58" y2="38.41"/>
    <g>
      <circle class="cls-5" cx="1845.53" cy="15.81" r="4.91"/>
      <circle class="cls-5" cx="1830.47" cy="15.82" r="4.91"/>
    </g>
    <line class="cls-2" x1="1842.67" y1="38.37" x2="1804.04" y2="38.39"/>
    <circle class="cls-7" cx="1774.9" cy="38.18" r="4.91"/>
    <line class="cls-1" x1="1742.98" y1="60.42" x2="1685.04" y2="60.45"/>
    <line class="cls-3" x1="1748.71" y1="83.93" x2="1690.76" y2="83.9"/>
    <line class="cls-1" x1="1891.25" y1="61.1" x2="1775.35" y2="61.04"/>
    <circle class="cls-6" cx="1914.36" cy="60.96" r="4.91"/>
    <g>
      <line class="cls-2" x1="1752" y1="84.53" x2="1772.85" y2="63.71"/>
      <circle class="cls-8" cx="1774.21" cy="62.07" r="4.91"/>
      <circle class="cls-8" cx="1751.88" cy="84.97" r="4.91"/>
    </g>
    <line class="cls-2" x1="1895.87" y1="61.1" x2="1857.24" y2="61.08"/>
    <line class="cls-1" x1="1839.29" y1="489.72" x2="1800.66" y2="489.7"/>
    <g>
      <line class="cls-2" x1="1622.74" y1="38.62" x2="1601.89" y2="59.44"/>
      <circle class="cls-8" cx="1600.53" cy="61.07" r="4.91"/>
      <circle class="cls-8" cx="1622.85" cy="38.18" r="4.91"/>
    </g>
    <line class="cls-2" x1="1603.21" y1="173.52" x2="1661.16" y2="173.55"/>
    <g>
      <line class="cls-2" x1="1602.35" y1="173.97" x2="1581.5" y2="194.79"/>
      <circle class="cls-8" cx="1580.14" cy="196.43" r="4.91"/>
      <circle class="cls-8" cx="1602.47" cy="173.53" r="4.91"/>
    </g>
    <g>
      <line class="cls-2" x1="1681.43" y1="714.66" x2="1702.27" y2="693.84"/>
      <circle class="cls-8" cx="1703.64" cy="692.21" r="4.91"/>
      <circle class="cls-8" cx="1681.31" cy="715.1" r="4.91"/>
    </g>
    <line class="cls-4" x1="1751.23" y1="805.55" x2="1712.6" y2="805.52"/>
    <line class="cls-1" x1="1726.58" y1="15.78" x2="1707.26" y2="15.78"/>
    <line class="cls-4" x1="1670.81" y1="196.43" x2="1651.5" y2="196.43"/>
  </g>
  <g>
    <circle class="cls-5" cx="193.94" cy="151.25" r="4.91"/>
    <circle class="cls-5" cx="209" cy="151.25" r="4.91"/>
    <g>
      <circle class="cls-5" cx="200.12" cy="195.95" r="4.91"/>
      <circle class="cls-5" cx="215.18" cy="195.95" r="4.91"/>
    </g>
    <line class="cls-1" x1="59.07" y1="151.28" x2="174.97" y2="151.22"/>
    <line class="cls-2" x1="1.5" y1="309.48" x2="156.03" y2="309.4"/>
    <line class="cls-2" x1="19.93" y1="196.38" x2="58.56" y2="196.36"/>
    <line class="cls-4" x1="3.23" y1="376.89" x2="61.18" y2="376.86"/>
    <line class="cls-2" x1="166.93" y1="377.18" x2="224.88" y2="377.15"/>
    <line class="cls-4" x1="249.37" y1="399.53" x2="173.75" y2="399.5"/>
    <line class="cls-4" x1=".78" y1="421.92" x2="58.73" y2="421.89"/>
    <line class="cls-4" x1="136.99" y1="354.33" x2="194.94" y2="354.3"/>
    <line class="cls-4" x1="59.57" y1="241.51" x2="1.62" y2="241.48"/>
    <line class="cls-1" x1="244.48" y1="264.25" x2="186.53" y2="264.22"/>
    <line class="cls-1" x1="148.04" y1="331.76" x2="205.99" y2="331.73"/>
    <line class="cls-3" x1="264.68" y1="421.8" x2="322.63" y2="421.77"/>
    <line class="cls-3" x1="1.26" y1="444.06" x2="117.16" y2="444"/>
    <line class="cls-3" x1="37.14" y1="286.69" x2="153.03" y2="286.63"/>
    <line class="cls-1" x1="24.6" y1="263.76" x2="140.49" y2="263.7"/>
    <line class="cls-2" x1="79.66" y1="218.84" x2="195.56" y2="218.84"/>
    <line class="cls-1" x1="26.17" y1="399.51" x2="142.07" y2="399.45"/>
    <line class="cls-2" x1="237.21" y1="331.96" x2="314.48" y2="331.92"/>
    <line class="cls-3" x1="214.68" y1="128.74" x2="291.94" y2="128.7"/>
    <line class="cls-2" x1="38.87" y1="106.51" x2="77.5" y2="106.49"/>
    <line class="cls-2" x1="106.47" y1="128.73" x2="145.1" y2="128.71"/>
    <line class="cls-1" x1="340.34" y1="196.32" x2="378.97" y2="196.3"/>
    <line class="cls-1" x1="75.77" y1="286.67" x2="114.4" y2="286.65"/>
    <line class="cls-1" x1="143.32" y1="218.84" x2="181.95" y2="218.82"/>
    <line class="cls-2" x1="59.45" y1="151.06" x2="98.08" y2="151.04"/>
    <line class="cls-2" x1="98.62" y1="421.91" x2="137.25" y2="421.89"/>
    <line class="cls-1" x1="210.16" y1="105.89" x2="326.05" y2="105.83"/>
    <line class="cls-2" x1="210.16" y1="105.87" x2="248.79" y2="105.85"/>
    <line class="cls-3" x1="103.4" y1="196.39" x2="180.67" y2="196.35"/>
    <circle class="cls-5" cx="314.48" cy="376.7" r="4.91"/>
    <circle class="cls-8" cx="391.37" cy="399.39" r="4.91"/>
    <line class="cls-1" x1="3.45" y1="354.34" x2="119.34" y2="354.28"/>
    <line class="cls-3" x1="398.99" y1="354.35" x2="437.62" y2="354.33"/>
    <line class="cls-2" x1="80.71" y1="354.32" x2="119.34" y2="354.3"/>
    <line class="cls-1" x1="229.76" y1="241.53" x2="113.87" y2="241.47"/>
    <line class="cls-2" x1="364.04" y1="241.47" x2="268.5" y2="241.53"/>
    <line class="cls-2" x1="1.62" y1="241.51" x2="40.25" y2="241.49"/>
    <line class="cls-3" x1="234.46" y1="354.33" x2="311.72" y2="354.29"/>
    <line class="cls-3" x1="19.01" y1="331.77" x2="96.28" y2="331.73"/>
    <line class="cls-2" x1="1.26" y1="444.04" x2="39.89" y2="444.02"/>
    <line class="cls-2" x1="269.47" y1="286.61" x2="308.1" y2="286.59"/>
    <line class="cls-3" x1="366.57" y1="264.26" x2="405.2" y2="264.24"/>
    <line class="cls-3" x1="176.53" y1="309.52" x2="215.16" y2="309.49"/>
    <line class="cls-3" x1="1.22" y1="218.85" x2="39.86" y2="218.83"/>
    <line class="cls-3" x1="275.03" y1="399.45" x2="236.39" y2="399.43"/>
    <line class="cls-3" x1="338.42" y1="444.72" x2="377.05" y2="444.7"/>
    <line class="cls-3" x1="322.23" y1="61.08" x2="360.86" y2="61.06"/>
    <line class="cls-1" x1="280.41" y1="218.87" x2="299.72" y2="218.87"/>
    <line class="cls-2" x1="397.12" y1="195.83" x2="416.44" y2="195.83"/>
    <line class="cls-2" x1="342.07" y1="354.48" x2="361.39" y2="354.48"/>
    <line class="cls-4" x1="413.28" y1="444.6" x2="432.6" y2="444.6"/>
    <line class="cls-4" x1="328.08" y1="715.27" x2="347.4" y2="715.27"/>
    <line class="cls-1" x1="217.06" y1="828.18" x2="236.37" y2="828.18"/>
    <line class="cls-3" x1="299.91" y1="534.74" x2="319.23" y2="534.74"/>
    <line class="cls-3" x1="306.56" y1="670.49" x2="287.24" y2="670.49"/>
    <line class="cls-1" x1="161.56" y1="128.73" x2="200.19" y2="128.71"/>
    <line class="cls-3" x1="1.22" y1="106.13" x2="20.54" y2="106.12"/>
    <line class="cls-4" x1="110.18" y1="15.8" x2="148.81" y2="15.78"/>
    <line class="cls-1" x1="134.84" y1="444.04" x2="173.48" y2="444.02"/>
    <line class="cls-1" x1="1.5" y1="309.48" x2="40.13" y2="309.46"/>
    <line class="cls-4" x1="242.62" y1="376.89" x2="281.25" y2="376.86"/>
    <line class="cls-3" x1="1.22" y1="151.26" x2="39.86" y2="151.24"/>
    <circle class="cls-8" cx="6.13" cy="196.37" r="4.91"/>
    <circle class="cls-7" cx="157.73" cy="263.95" r="4.91"/>
    <circle class="cls-6" cx="324.5" cy="218.87" r="4.91"/>
    <circle class="cls-7" cx="333.94" cy="263.39" r="4.91"/>
    <circle class="cls-8" cx="171.2" cy="286.62" r="4.91"/>
    <circle class="cls-5" cx="243.67" cy="84.84" r="4.91"/>
    <circle class="cls-5" cx="243.43" cy="286.58" r="4.91"/>
    <circle class="cls-5" cx="4.91" cy="331.73" r="4.91"/>
    <circle class="cls-5" cx="215.14" cy="354.31" r="4.91"/>
    <line class="cls-1" x1="241.85" y1="151.12" x2="280.48" y2="151.1"/>
    <circle class="cls-8" cx="319.59" cy="128.31" r="4.91"/>
    <circle class="cls-5" cx="381.55" cy="60.95" r="4.91"/>
    <circle class="cls-7" cx="4.91" cy="399.48" r="4.91"/>
    <circle class="cls-5" cx="76.63" cy="421.9" r="4.91"/>
    <circle class="cls-8" cx="88.06" cy="196.37" r="4.91"/>
    <g>
      <circle class="cls-5" cx="6.13" cy="286.71" r="4.91"/>
      <circle class="cls-5" cx="21.19" cy="286.7" r="4.91"/>
    </g>
    <g>
      <circle class="cls-8" cx="114.78" cy="331.75" r="4.91"/>
      <circle class="cls-8" cx="129.84" cy="331.75" r="4.91"/>
    </g>
    <g>
      <circle class="cls-5" cx="77.72" cy="376.92" r="4.91"/>
      <circle class="cls-5" cx="92.78" cy="376.91" r="4.91"/>
    </g>
    <g>
      <circle class="cls-7" cx="96.84" cy="240.33" r="4.91"/>
      <circle class="cls-7" cx="81.78" cy="240.33" r="4.91"/>
    </g>
    <line class="cls-1" x1="103.94" y1="106.4" x2="161.89" y2="106.37"/>
    <g>
      <circle class="cls-8" cx="179.24" cy="106.39" r="4.91"/>
      <circle class="cls-8" cx="194.3" cy="106.38" r="4.91"/>
    </g>
    <g>
      <circle class="cls-5" cx="194.99" cy="444.14" r="4.91"/>
      <circle class="cls-5" cx="210.05" cy="444.13" r="4.91"/>
    </g>
    <g>
      <line class="cls-4" x1="215.28" y1="309.68" x2="236.12" y2="330.5"/>
      <circle class="cls-5" cx="237.49" cy="332.14" r="4.91"/>
      <circle class="cls-5" cx="215.16" cy="309.24" r="4.91"/>
    </g>
    <g>
      <line class="cls-4" x1="58.62" y1="196.63" x2="79.46" y2="217.45"/>
      <circle class="cls-5" cx="80.82" cy="219.09" r="4.91"/>
      <circle class="cls-5" cx="58.5" cy="196.2" r="4.91"/>
    </g>
    <g>
      <line class="cls-4" x1="80.02" y1="106.39" x2="100.86" y2="127.21"/>
      <circle class="cls-5" cx="102.22" cy="128.85" r="4.91"/>
      <circle class="cls-5" cx="79.9" cy="105.95" r="4.91"/>
    </g>
    <g>
      <line class="cls-1" x1="247.4" y1="263.39" x2="268.22" y2="242.55"/>
      <circle class="cls-8" cx="269.58" cy="240.91" r="4.91"/>
      <circle class="cls-8" cx="247.28" cy="263.83" r="4.91"/>
    </g>
    <g>
      <line class="cls-2" x1="164.07" y1="377.14" x2="143.23" y2="397.96"/>
      <circle class="cls-8" cx="141.87" cy="399.6" r="4.91"/>
      <circle class="cls-8" cx="164.19" cy="376.7" r="4.91"/>
    </g>
    <line class="cls-4" x1="1.96" y1="173.82" x2="59.9" y2="173.79"/>
    <line class="cls-4" x1="100.23" y1="173.06" x2="216.12" y2="173"/>
    <line class="cls-2" x1="100.23" y1="173.04" x2="138.86" y2="173.02"/>
    <circle class="cls-5" cx="77.81" cy="173.81" r="4.91"/>
    <circle class="cls-5" cx="6.13" cy="128.68" r="4.91"/>
    <g>
      <line class="cls-3" x1="239.12" y1="151.49" x2="218.3" y2="172.33"/>
      <circle class="cls-7" cx="216.93" cy="173.97" r="4.91"/>
      <circle class="cls-7" cx="239.24" cy="151.05" r="4.91"/>
    </g>
    <line class="cls-2" x1="123.46" y1="512.29" x2="277.99" y2="512.21"/>
    <line class="cls-1" x1="4.98" y1="760.48" x2="147.19" y2="760.4"/>
    <line class="cls-2" x1="3.56" y1="579.98" x2="158.09" y2="579.9"/>
    <line class="cls-4" x1="2.53" y1="625.08" x2="60.48" y2="625.05"/>
    <line class="cls-2" x1="140.32" y1="489.64" x2="24.43" y2="489.71"/>
    <line class="cls-4" x1="102.88" y1="512.27" x2="44.93" y2="512.24"/>
    <line class="cls-4" x1="1.22" y1="467.14" x2="59.17" y2="467.11"/>
    <line class="cls-2" x1="368.18" y1="512.23" x2="426.12" y2="512.2"/>
    <line class="cls-4" x1="176.17" y1="647.63" x2="234.12" y2="647.6"/>
    <line class="cls-2" x1="248.44" y1="625.08" x2="306.39" y2="625.05"/>
    <line class="cls-3" x1="238.51" y1="489.59" x2="296.45" y2="489.56"/>
    <line class="cls-1" x1="261.94" y1="444.57" x2="300.57" y2="444.55"/>
    <line class="cls-3" x1="37.3" y1="602.19" x2="153.2" y2="602.13"/>
    <line class="cls-1" x1="95.64" y1="625.1" x2="211.53" y2="625.04"/>
    <line class="cls-1" x1="99.07" y1="467.16" x2="214.96" y2="467.1"/>
    <line class="cls-2" x1="237.3" y1="557.31" x2="314.56" y2="557.27"/>
    <line class="cls-2" x1="69.93" y1="760.46" x2="147.19" y2="760.42"/>
    <line class="cls-1" x1="75.94" y1="602.17" x2="114.57" y2="602.15"/>
    <line class="cls-2" x1="99.07" y1="467.14" x2="137.7" y2="467.12"/>
    <circle class="cls-5" cx="54.28" cy="534.81" r="4.91"/>
    <circle class="cls-5" cx="69.34" cy="534.81" r="4.91"/>
    <line class="cls-1" x1="82.04" y1="534.85" x2="197.93" y2="534.78"/>
    <line class="cls-2" x1="1.38" y1="534.82" x2="40.01" y2="534.8"/>
    <line class="cls-2" x1="159.3" y1="534.82" x2="197.93" y2="534.8"/>
    <line class="cls-1" x1="2.84" y1="648.01" x2="118.73" y2="647.95"/>
    <line class="cls-2" x1="2.84" y1="647.95" x2="41.47" y2="647.92"/>
    <line class="cls-3" x1="19.1" y1="557.42" x2="96.36" y2="557.38"/>
    <line class="cls-1" x1="279.72" y1="580.21" x2="337.67" y2="580.18"/>
    <line class="cls-1" x1="343.3" y1="670.5" x2="401.25" y2="670.47"/>
    <line class="cls-1" x1="267.93" y1="647.65" x2="325.87" y2="647.62"/>
    <line class="cls-1" x1="1.23" y1="828.15" x2="59.18" y2="828.12"/>
    <line class="cls-2" x1="189.53" y1="602.17" x2="228.16" y2="602.15"/>
    <line class="cls-3" x1="337.82" y1="602.48" x2="358.77" y2="602.5"/>
    <line class="cls-3" x1="176.59" y1="579.95" x2="215.22" y2="579.93"/>
    <line class="cls-2" x1="371.84" y1="625.04" x2="400" y2="625.03"/>
    <line class="cls-3" x1="128.14" y1="828.16" x2="156.3" y2="828.15"/>
    <line class="cls-4" x1="373.08" y1="557.48" x2="401.23" y2="557.47"/>
    <line class="cls-1" x1="352.49" y1="534.85" x2="380.65" y2="534.84"/>
    <line class="cls-4" x1="338.42" y1="489.82" x2="377.05" y2="489.8"/>
    <line class="cls-1" x1="3.56" y1="579.95" x2="42.19" y2="579.93"/>
    <line class="cls-4" x1="239.36" y1="512.26" x2="277.99" y2="512.24"/>
    <circle class="cls-7" cx="78.4" cy="625.07" r="4.91"/>
    <circle class="cls-7" cx="228.77" cy="625.07" r="4.91"/>
    <circle class="cls-8" cx="171.36" cy="602.16" r="4.91"/>
    <circle class="cls-6" cx="295.73" cy="692.21" r="4.91"/>
    <circle class="cls-6" cx="353.08" cy="557.48" r="4.91"/>
    <circle class="cls-5" cx="380.65" cy="647.58" r="4.91"/>
    <line class="cls-1" x1="353.08" y1="399.62" x2="324.92" y2="399.61"/>
    <line class="cls-4" x1="349.07" y1="309.19" x2="320.92" y2="309.18"/>
    <circle class="cls-6" cx="390.06" cy="309.19" r="4.91"/>
    <circle class="cls-5" cx="428.79" cy="240.33" r="4.91"/>
    <circle class="cls-7" cx="408.79" cy="151.49" r="4.91"/>
    <circle class="cls-5" cx="6.13" cy="557.43" r="4.91"/>
    <circle class="cls-5" cx="217.04" cy="534.81" r="4.91"/>
    <circle class="cls-7" cx="332.25" cy="467.37" r="4.91"/>
    <circle class="cls-6" cx="4.91" cy="489.64" r="4.91"/>
    <circle class="cls-5" cx="77.08" cy="467.13" r="4.91"/>
    <g>
      <circle class="cls-7" cx="6.13" cy="602.52" r="4.91"/>
      <circle class="cls-7" cx="21.19" cy="602.51" r="4.91"/>
    </g>
    <g>
      <circle class="cls-8" cx="114.86" cy="557.37" r="4.91"/>
      <circle class="cls-8" cx="129.92" cy="557.37" r="4.91"/>
    </g>
    <g>
      <circle class="cls-5" cx="23.49" cy="512.26" r="4.91"/>
      <circle class="cls-5" cx="8.43" cy="512.25" r="4.91"/>
    </g>
    <line class="cls-1" x1="65.13" y1="670.49" x2="7.18" y2="670.46"/>
    <g>
      <circle class="cls-7" cx="138.43" cy="647.98" r="4.91"/>
      <circle class="cls-7" cx="153.49" cy="647.98" r="4.91"/>
    </g>
    <g>
      <circle class="cls-7" cx="105.59" cy="737.87" r="4.91"/>
      <circle class="cls-7" cx="120.65" cy="737.86" r="4.91"/>
    </g>
    <line class="cls-1" x1="296.4" y1="39.16" x2="238.45" y2="39.19"/>
    <line class="cls-4" x1="1.48" y1="805.57" x2="59.43" y2="805.54"/>
    <g>
      <circle class="cls-5" cx="245.39" cy="581.44" r="4.91"/>
      <circle class="cls-5" cx="260.45" cy="581.43" r="4.91"/>
    </g>
    <g>
      <circle class="cls-5" cx="74.48" cy="828.14" r="4.91"/>
      <circle class="cls-5" cx="89.54" cy="828.13" r="4.91"/>
    </g>
    <g>
      <line class="cls-4" x1="215.42" y1="580.06" x2="236.24" y2="559.22"/>
      <circle class="cls-5" cx="237.6" cy="557.58" r="4.91"/>
      <circle class="cls-5" cx="215.3" cy="580.5" r="4.91"/>
    </g>
    <g>
      <line class="cls-1" x1="331.96" y1="602.6" x2="311.12" y2="623.42"/>
      <circle class="cls-8" cx="309.75" cy="625.05" r="4.91"/>
      <circle class="cls-8" cx="332.08" cy="602.16" r="4.91"/>
    </g>
    <g>
      <line class="cls-2" x1="239.89" y1="489.18" x2="219.04" y2="468.36"/>
      <circle class="cls-8" cx="217.68" cy="466.72" r="4.91"/>
      <circle class="cls-8" cx="240" cy="489.62" r="4.91"/>
    </g>
    <line class="cls-1" x1="178.43" y1="422.15" x2="236.37" y2="422.12"/>
    <line class="cls-1" x1="258.1" y1="83.53" x2="296.73" y2="83.51"/>
    <line class="cls-3" x1="333.94" y1="151.05" x2="372.57" y2="151.03"/>
    <line class="cls-2" x1="139.01" y1="715.44" x2="23.11" y2="715.5"/>
    <line class="cls-4" x1="2.44" y1="738.18" x2="86.9" y2="738.15"/>
    <line class="cls-4" x1="1.48" y1="692.81" x2="59.43" y2="692.78"/>
    <line class="cls-1" x1="160.01" y1="715.48" x2="198.64" y2="715.46"/>
    <line class="cls-2" x1="89.25" y1="805.58" x2="127.88" y2="805.56"/>
    <line class="cls-1" x1="99.32" y1="692.82" x2="215.22" y2="692.76"/>
    <line class="cls-2" x1="99.32" y1="692.8" x2="137.96" y2="692.78"/>
    <line class="cls-2" x1="261.68" y1="738.15" x2="145.79" y2="738.21"/>
    <line class="cls-1" x1="145.71" y1="738.21" x2="184.34" y2="738.19"/>
    <circle class="cls-6" cx="9.27" cy="715.47" r="4.91"/>
    <circle class="cls-5" cx="77.33" cy="692.79" r="4.91"/>
    <line class="cls-1" x1="120.53" y1="670.47" x2="236.42" y2="670.41"/>
    <line class="cls-2" x1="120.53" y1="670.47" x2="159.16" y2="670.45"/>
    <line class="cls-1" x1="242.09" y1="715.51" x2="280.72" y2="715.49"/>
    <circle class="cls-7" cx="300.95" cy="737.86" r="4.91"/>
    <circle class="cls-8" cx="247" cy="782.91" r="4.91"/>
    <circle class="cls-7" cx="188.08" cy="828.12" r="4.91"/>
    <circle class="cls-5" cx="98.54" cy="669.53" r="4.91"/>
    <line class="cls-1" x1="276.38" y1="782.92" x2="334.32" y2="782.89"/>
    <line class="cls-1" x1="176.17" y1="781.92" x2="234.12" y2="781.89"/>
    <g>
      <circle class="cls-5" cx="296.9" cy="512.26" r="4.91"/>
      <circle class="cls-5" cx="311.96" cy="512.25" r="4.91"/>
    </g>
    <line class="cls-2" x1="21.55" y1="399.49" x2="60.18" y2="399.47"/>
    <line class="cls-3" x1="174.92" y1="761.05" x2="232.87" y2="761.08"/>
    <line class="cls-1" x1="32.38" y1="782.88" x2="148.28" y2="782.94"/>
    <circle class="cls-6" cx="9.27" cy="783.02" r="4.91"/>
    <g>
      <line class="cls-2" x1="171.63" y1="759.45" x2="150.78" y2="780.27"/>
      <circle class="cls-8" cx="149.42" cy="781.91" r="4.91"/>
      <circle class="cls-8" cx="171.75" cy="759.01" r="4.91"/>
    </g>
    <line class="cls-2" x1="27.76" y1="782.87" x2="66.39" y2="782.9"/>
    <line class="cls-2" x1="66.3" y1="83.52" x2="143.56" y2="83.56"/>
    <line class="cls-1" x1="1.22" y1="15.8" x2="59.17" y2="15.83"/>
    <line class="cls-4" x1="174.92" y1="38.36" x2="203.08" y2="38.37"/>
    <line class="cls-4" x1="350.89" y1="105.88" x2="379.04" y2="105.89"/>
    <line class="cls-4" x1="1.48" y1="38.38" x2="59.42" y2="38.41"/>
    <g>
      <circle class="cls-5" cx="74.47" cy="15.81" r="4.91"/>
      <circle class="cls-5" cx="89.53" cy="15.82" r="4.91"/>
    </g>
    <line class="cls-2" x1="77.33" y1="38.37" x2="115.96" y2="38.39"/>
    <circle class="cls-7" cx="145.1" cy="38.18" r="4.91"/>
    <line class="cls-1" x1="177.02" y1="60.42" x2="234.96" y2="60.45"/>
    <line class="cls-3" x1="171.29" y1="83.93" x2="229.24" y2="83.9"/>
    <line class="cls-1" x1="28.75" y1="61.1" x2="144.65" y2="61.04"/>
    <circle class="cls-6" cx="5.64" cy="60.96" r="4.91"/>
    <g>
      <line class="cls-2" x1="168" y1="84.53" x2="147.15" y2="63.71"/>
      <circle class="cls-8" cx="145.79" cy="62.07" r="4.91"/>
      <circle class="cls-8" cx="168.12" cy="84.97" r="4.91"/>
    </g>
    <line class="cls-2" x1="24.13" y1="61.1" x2="62.76" y2="61.08"/>
    <line class="cls-1" x1="80.71" y1="489.72" x2="119.34" y2="489.7"/>
    <g>
      <line class="cls-2" x1="297.26" y1="38.62" x2="318.11" y2="59.44"/>
      <circle class="cls-8" cx="319.47" cy="61.07" r="4.91"/>
      <circle class="cls-8" cx="297.15" cy="38.18" r="4.91"/>
    </g>
    <line class="cls-2" x1="316.79" y1="173.52" x2="258.84" y2="173.55"/>
    <g>
      <line class="cls-2" x1="317.65" y1="173.97" x2="338.5" y2="194.79"/>
      <circle class="cls-8" cx="339.86" cy="196.43" r="4.91"/>
      <circle class="cls-8" cx="317.53" cy="173.53" r="4.91"/>
    </g>
    <g>
      <line class="cls-2" x1="238.57" y1="714.66" x2="217.73" y2="693.84"/>
      <circle class="cls-8" cx="216.36" cy="692.21" r="4.91"/>
      <circle class="cls-8" cx="238.69" cy="715.1" r="4.91"/>
    </g>
    <line class="cls-4" x1="168.77" y1="805.55" x2="207.4" y2="805.52"/>
    <line class="cls-1" x1="193.42" y1="15.78" x2="212.74" y2="15.78"/>
    <line class="cls-4" x1="249.19" y1="196.43" x2="268.5" y2="196.43"/>
  </g>
</svg>